<svg xmlns="http://www.w3.org/2000/svg" viewBox="0 0 1300 450"><g class="graphs" transform="translate(100, 100)"><g class="medication-trace" transform="translate(0, 0)"><g class="y-axis" width="30"><text class="title" rotation="-90" text-anchor="middle" dominant-baseline="central" font-size="12" transform="translate(-55,50) rotate(-90)">(mcg/kg/min)</text><g class="d3-axis-left" fill="none" font-size="10" font-family="sans-serif" text-anchor="end"><path class="domain" stroke="currentColor" d="M-6,100.5H0.5V0.5H-6"></path><g class="tick" opacity="1" transform="translate(0,100.5)"><line stroke="currentColor" x2="-6"></line><text fill="currentColor" x="-9" dy="0.32em">0.00</text></g><g class="tick" opacity="1" transform="translate(0,83.83333333333333)"><line stroke="currentColor" x2="-6"></line><text fill="currentColor" x="-9" dy="0.32em">0.05</text></g><g class="tick" opacity="1" transform="translate(0,67.16666666666666)"><line stroke="currentColor" x2="-6"></line><text fill="currentColor" x="-9" dy="0.32em">0.10</text></g><g class="tick" opacity="1" transform="translate(0,50.5)"><line stroke="currentColor" x2="-6"></line><text fill="currentColor" x="-9" dy="0.32em">0.15</text></g><g class="tick" opacity="1" transform="translate(0,33.83333333333333)"><line stroke="currentColor" x2="-6"></line><text fill="currentColor" x="-9" dy="0.32em">0.20</text></g><g class="tick" opacity="1" transform="translate(0,17.166666666666664)"><line stroke="currentColor" x2="-6"></line><text fill="currentColor" x="-9" dy="0.32em">0.25</text></g><g class="tick" opacity="1" transform="translate(0,0.5)"><line stroke="currentColor" x2="-6"></line><text fill="currentColor" x="-9" dy="0.32em">0.30</text></g></g></g><line stroke="lightgray" stroke-width="0.5" x1="0" x2="1100" y1="100" y2="100"></line><line stroke="lightgray" stroke-width="0.5" x1="0" x2="1100" y1="83.33333333333333" y2="83.33333333333333"></line><line stroke="lightgray" stroke-width="0.5" x1="0" x2="1100" y1="66.66666666666666" y2="66.66666666666666"></line><line stroke="lightgray" stroke-width="0.5" x1="0" x2="1100" y1="50" y2="50"></line><line stroke="lightgray" stroke-width="0.5" x1="0" x2="1100" y1="33.33333333333333" y2="33.33333333333333"></line><line stroke="lightgray" stroke-width="0.5" x1="0" x2="1100" y1="16.666666666666664" y2="16.666666666666664"></line><line stroke="lightgray" stroke-width="0.5" x1="0" x2="1100" y1="0" y2="0"></line><g class="medication-bar"><circle r="3" cx="122.22292953084218" cy="33.33333333333333" fill="black"></circle><circle r="3" cx="122.68126551658285" cy="33.33333333333333" fill="black"></circle><line stroke-width="1" stroke="black" x1="122.22292953084218" x2="122.68126551658285" y1="33.33333333333333" y2="33.33333333333333"></line></g><g class="medication-bar"><circle r="3" cx="122.68126551658285" cy="0" fill="black"></circle><circle r="3" cx="134.06327582914253" cy="0" fill="black"></circle><line stroke-width="1" stroke="black" x1="122.68126551658285" x2="134.06327582914253" y1="0" y2="0"></line></g><g class="medication-bar"><circle r="3" cx="134.06327582914253" cy="33.33333333333333" fill="black"></circle><circle r="3" cx="152.88051435482845" cy="33.33333333333333" fill="black"></circle><line stroke-width="1" stroke="black" x1="134.06327582914253" x2="152.88051435482845" y1="33.33333333333333" y2="33.33333333333333"></line></g><g class="medication-bar"><circle r="3" cx="152.88051435482845" cy="40" fill="black"></circle><circle r="3" cx="163.09758737029728" cy="40" fill="black"></circle><line stroke-width="1" stroke="black" x1="152.88051435482845" x2="163.09758737029728" y1="40" y2="40"></line></g><g class="medication-bar"><circle r="3" cx="163.09758737029728" cy="60" fill="black"></circle><circle r="3" cx="171.62772932713733" cy="60" fill="black"></circle><line stroke-width="1" stroke="black" x1="163.09758737029728" x2="171.62772932713733" y1="60" y2="60"></line></g><g class="medication-bar"><circle r="3" cx="171.62772932713733" cy="53.33333333333332" fill="black"></circle><circle r="3" cx="286.0780444331275" cy="53.33333333333332" fill="black"></circle><line stroke-width="1" stroke="black" x1="171.62772932713733" x2="286.0780444331275" y1="53.33333333333332" y2="53.33333333333332"></line></g><g class="medication-bar"><circle r="3" cx="286.0780444331275" cy="46.666666666666664" fill="black"></circle><circle r="3" cx="320.91157934941754" cy="46.666666666666664" fill="black"></circle><line stroke-width="1" stroke="black" x1="286.0780444331275" x2="320.91157934941754" y1="46.666666666666664" y2="46.666666666666664"></line></g><g class="medication-bar"><circle r="3" cx="325.64771786873763" cy="60" fill="black"></circle><circle r="3" cx="326.1187854096378" cy="60" fill="black"></circle><line stroke-width="1" stroke="black" x1="325.64771786873763" x2="326.1187854096378" y1="60" y2="60"></line></g><g class="medication-bar"><circle r="3" cx="326.1187854096378" cy="66.66666666666666" fill="black"></circle><circle r="3" cx="345.66172257941304" cy="66.66666666666666" fill="black"></circle><line stroke-width="1" stroke="black" x1="326.1187854096378" x2="345.66172257941304" y1="66.66666666666666" y2="66.66666666666666"></line></g><g class="medication-bar"><circle r="3" cx="345.66172257941304" cy="73.33333333333334" fill="black"></circle><circle r="3" cx="349.4811891272519" cy="73.33333333333334" fill="black"></circle><line stroke-width="1" stroke="black" x1="345.66172257941304" x2="349.4811891272519" y1="73.33333333333334" y2="73.33333333333334"></line></g><g class="medication-bar"><circle r="3" cx="349.4811891272519" cy="66.66666666666666" fill="black"></circle><circle r="3" cx="445.27977592462923" cy="66.66666666666666" fill="black"></circle><line stroke-width="1" stroke="black" x1="349.4811891272519" x2="445.27977592462923" y1="66.66666666666666" y2="66.66666666666666"></line></g><g class="medication-bar"><circle r="3" cx="445.27977592462923" cy="50" fill="black"></circle><circle r="3" cx="449.5512126806289" cy="50" fill="black"></circle><line stroke-width="1" stroke="black" x1="445.27977592462923" x2="449.5512126806289" y1="50" y2="50"></line></g><g class="medication-bar"><circle r="3" cx="449.5512126806289" cy="60" fill="black"></circle><circle r="3" cx="482.22674899739" cy="60" fill="black"></circle><line stroke-width="1" stroke="black" x1="449.5512126806289" x2="482.22674899739" y1="60" y2="60"></line></g><g class="medication-bar"><circle r="3" cx="482.22674899739" cy="73.33333333333334" fill="black"></circle><circle r="3" cx="485.6006111146476" cy="73.33333333333334" fill="black"></circle><line stroke-width="1" stroke="black" x1="482.22674899739" x2="485.6006111146476" y1="73.33333333333334" y2="73.33333333333334"></line></g><g class="medication-bar"><circle r="3" cx="485.6006111146476" cy="83.33333333333333" fill="black"></circle><circle r="3" cx="507.09147622382073" cy="83.33333333333333" fill="black"></circle><line stroke-width="1" stroke="black" x1="485.6006111146476" x2="507.09147622382073" y1="83.33333333333333" y2="83.33333333333333"></line></g><g class="medication-bar"><circle r="3" cx="507.09147622382073" cy="73.33333333333334" fill="black"></circle><circle r="3" cx="551.9129161627093" cy="73.33333333333334" fill="black"></circle><line stroke-width="1" stroke="black" x1="507.09147622382073" x2="551.9129161627093" y1="73.33333333333334" y2="73.33333333333334"></line></g><g class="medication-bar"><circle r="3" cx="551.9129161627093" cy="90" fill="black"></circle><circle r="3" cx="561.4615825323064" cy="90" fill="black"></circle><line stroke-width="1" stroke="black" x1="551.9129161627093" x2="561.4615825323064" y1="90" y2="90"></line></g><g class="medication-bar"><circle r="3" cx="585.3459800114584" cy="90" fill="black"></circle><circle r="3" cx="587.0520084028265" cy="90" fill="black"></circle><line stroke-width="1" stroke="black" x1="585.3459800114584" x2="587.0520084028265" y1="90" y2="90"></line></g><g class="medication-bar"><circle r="3" cx="587.0520084028265" cy="83.33333333333333" fill="black"></circle><circle r="3" cx="593.672417085747" cy="83.33333333333333" fill="black"></circle><line stroke-width="1" stroke="black" x1="587.0520084028265" x2="593.672417085747" y1="83.33333333333333" y2="83.33333333333333"></line></g><g class="medication-bar"><circle r="3" cx="593.672417085747" cy="73.33333333333334" fill="black"></circle><circle r="3" cx="595.0728881532879" cy="73.33333333333334" fill="black"></circle><line stroke-width="1" stroke="black" x1="593.672417085747" x2="595.0728881532879" y1="73.33333333333334" y2="73.33333333333334"></line></g><g class="medication-bar"><circle r="3" cx="595.0728881532879" cy="66.66666666666666" fill="black"></circle><circle r="3" cx="667.2608059074416" cy="66.66666666666666" fill="black"></circle><line stroke-width="1" stroke="black" x1="595.0728881532879" x2="667.2608059074416" y1="66.66666666666666" y2="66.66666666666666"></line></g><g class="medication-bar"><circle r="3" cx="667.2608059074416" cy="66.66666666666666" fill="black"></circle><circle r="3" cx="684.8303520275002" cy="66.66666666666666" fill="black"></circle><line stroke-width="1" stroke="black" x1="667.2608059074416" x2="684.8303520275002" y1="66.66666666666666" y2="66.66666666666666"></line></g><g class="medication-bar"><circle r="3" cx="684.8303520275002" cy="73.33333333333334" fill="black"></circle><circle r="3" cx="712.3305111719396" cy="73.33333333333334" fill="black"></circle><line stroke-width="1" stroke="black" x1="684.8303520275002" x2="712.3305111719396" y1="73.33333333333334" y2="73.33333333333334"></line></g><g class="medication-bar"><circle r="3" cx="712.3305111719396" cy="73.33333333333334" fill="black"></circle><circle r="3" cx="748.2334967216245" cy="73.33333333333334" fill="black"></circle><line stroke-width="1" stroke="black" x1="712.3305111719396" x2="748.2334967216245" y1="73.33333333333334" y2="73.33333333333334"></line></g><g class="medication-bar"><circle r="3" cx="748.2334967216245" cy="80" fill="black"></circle><circle r="3" cx="769.4188045069706" cy="80" fill="black"></circle><line stroke-width="1" stroke="black" x1="748.2334967216245" x2="769.4188045069706" y1="80" y2="80"></line></g><g class="medication-bar"><circle r="3" cx="769.4188045069706" cy="66.66666666666666" fill="black"></circle><circle r="3" cx="769.953529823668" cy="66.66666666666666" fill="black"></circle><line stroke-width="1" stroke="black" x1="769.4188045069706" x2="769.953529823668" y1="66.66666666666666" y2="66.66666666666666"></line></g><g class="medication-bar"><circle r="3" cx="769.953529823668" cy="60" fill="black"></circle><circle r="3" cx="771.6786555477752" cy="60" fill="black"></circle><line stroke-width="1" stroke="black" x1="769.953529823668" x2="771.6786555477752" y1="60" y2="60"></line></g><g class="medication-bar"><circle r="3" cx="771.6786555477752" cy="66.66666666666666" fill="black"></circle><circle r="3" cx="771.990578649182" cy="66.66666666666666" fill="black"></circle><line stroke-width="1" stroke="black" x1="771.6786555477752" x2="771.990578649182" y1="66.66666666666666" y2="66.66666666666666"></line></g><g class="medication-bar"><circle r="3" cx="771.990578649182" cy="73.33333333333334" fill="black"></circle><circle r="3" cx="781.0809090330384" cy="73.33333333333334" fill="black"></circle><line stroke-width="1" stroke="black" x1="771.990578649182" x2="781.0809090330384" y1="73.33333333333334" y2="73.33333333333334"></line></g><g class="medication-bar"><circle r="3" cx="781.0809090330384" cy="86.66666666666667" fill="black"></circle><circle r="3" cx="794.4490419504743" cy="86.66666666666667" fill="black"></circle><line stroke-width="1" stroke="black" x1="781.0809090330384" x2="794.4490419504743" y1="86.66666666666667" y2="86.66666666666667"></line></g><g class="medication-bar"><circle r="3" cx="794.4490419504743" cy="83.33333333333333" fill="black"></circle><circle r="3" cx="904.5706283022471" cy="83.33333333333333" fill="black"></circle><line stroke-width="1" stroke="black" x1="794.4490419504743" x2="904.5706283022471" y1="83.33333333333333" y2="83.33333333333333"></line></g><g class="medication-bar"><circle r="3" cx="904.5706283022471" cy="90" fill="black"></circle><circle r="3" cx="909.313132599147" cy="90" fill="black"></circle><line stroke-width="1" stroke="black" x1="904.5706283022471" x2="909.313132599147" y1="90" y2="90"></line></g><g class="medication-bar"><circle r="3" cx="909.313132599147" cy="93.33333333333333" fill="black"></circle><circle r="3" cx="924.4254885734293" cy="93.33333333333333" fill="black"></circle><line stroke-width="1" stroke="black" x1="909.313132599147" x2="924.4254885734293" y1="93.33333333333333" y2="93.33333333333333"></line></g><g class="medication-bar"><circle r="3" cx="975.4917563180343" cy="66.66666666666666" fill="black"></circle><circle r="3" cx="977.7834362467374" cy="66.66666666666666" fill="black"></circle><line stroke-width="1" stroke="black" x1="975.4917563180343" x2="977.7834362467374" y1="66.66666666666666" y2="66.66666666666666"></line></g><g class="medication-bar"><circle r="3" cx="977.7834362467374" cy="73.33333333333334" fill="black"></circle><circle r="3" cx="978.5473295563054" cy="73.33333333333334" fill="black"></circle><line stroke-width="1" stroke="black" x1="977.7834362467374" x2="978.5473295563054" y1="73.33333333333334" y2="73.33333333333334"></line></g><g class="medication-bar"><circle r="3" cx="978.5473295563054" cy="80" fill="black"></circle><circle r="3" cx="1029.3462346425615" cy="80" fill="black"></circle><line stroke-width="1" stroke="black" x1="978.5473295563054" x2="1029.3462346425615" y1="80" y2="80"></line></g><g class="medication-bar"><circle r="3" cx="1029.3462346425615" cy="86.66666666666667" fill="black"></circle><circle r="3" cx="1074.0339932522756" cy="86.66666666666667" fill="black"></circle><line stroke-width="1" stroke="black" x1="1029.3462346425615" x2="1074.0339932522756" y1="86.66666666666667" y2="86.66666666666667"></line></g><g class="medication-bar"><circle r="3" cx="1074.0339932522756" cy="93.33333333333333" fill="black"></circle><circle r="3" cx="1095.117448596346" cy="93.33333333333333" fill="black"></circle><line stroke-width="1" stroke="black" x1="1074.0339932522756" x2="1095.117448596346" y1="93.33333333333333" y2="93.33333333333333"></line></g><g class="medication-legend" transform="translate(1110, 0)"><g transform="translate(0, 18)"><circle fill="black" cy="-3.3333333333333335" r="5"></circle><text font-size="10" transform="translate(10, 0)">EPINEPHrine 64 mcg/mL in dextrose 5% 50 mL infusion</text></g></g></g><g class="medication-trace" transform="translate(0, 140)"><g class="y-axis" width="30"><text class="title" rotation="-90" text-anchor="middle" dominant-baseline="central" font-size="12" transform="translate(-55,50) rotate(-90)">(mcg/kg/min)</text><g class="d3-axis-left" fill="none" font-size="10" font-family="sans-serif" text-anchor="end"><path class="domain" stroke="currentColor" d="M-6,100.5H0.5V0.5H-6"></path><g class="tick" opacity="1" transform="translate(0,100.5)"><line stroke="currentColor" x2="-6"></line><text fill="currentColor" x="-9" dy="0.32em">0.050</text></g><g class="tick" opacity="1" transform="translate(0,80.5)"><line stroke="currentColor" x2="-6"></line><text fill="currentColor" x="-9" dy="0.32em">0.055</text></g><g class="tick" opacity="1" transform="translate(0,60.50000000000001)"><line stroke="currentColor" x2="-6"></line><text fill="currentColor" x="-9" dy="0.32em">0.060</text></g><g class="tick" opacity="1" transform="translate(0,40.49999999999999)"><line stroke="currentColor" x2="-6"></line><text fill="currentColor" x="-9" dy="0.32em">0.065</text></g><g class="tick" opacity="1" transform="translate(0,20.49999999999996)"><line stroke="currentColor" x2="-6"></line><text fill="currentColor" x="-9" dy="0.32em">0.070</text></g><g class="tick" opacity="1" transform="translate(0,0.5)"><line stroke="currentColor" x2="-6"></line><text fill="currentColor" x="-9" dy="0.32em">0.075</text></g></g></g><line stroke="lightgray" stroke-width="0.5" x1="0" x2="1100" y1="100" y2="100"></line><line stroke="lightgray" stroke-width="0.5" x1="0" x2="1100" y1="80" y2="80"></line><line stroke="lightgray" stroke-width="0.5" x1="0" x2="1100" y1="60.00000000000001" y2="60.00000000000001"></line><line stroke="lightgray" stroke-width="0.5" x1="0" x2="1100" y1="39.99999999999999" y2="39.99999999999999"></line><line stroke="lightgray" stroke-width="0.5" x1="0" x2="1100" y1="19.99999999999996" y2="19.99999999999996"></line><line stroke="lightgray" stroke-width="0.5" x1="0" x2="1100" y1="0" y2="0"></line><g class="medication-bar"><circle r="3" cx="168.83951874721498" cy="100" fill="black"></circle><circle r="3" cx="261.4806798650455" cy="100" fill="black"></circle><line stroke-width="1" stroke="black" x1="168.83951874721498" x2="261.4806798650455" y1="100" y2="100"></line></g><g class="medication-bar"><circle r="3" cx="261.4806798650455" cy="19.99999999999996" fill="black"></circle><line stroke-width="1" stroke="black" x1="261.4806798650455" x2="1100" y1="19.99999999999996" y2="19.99999999999996"></line></g><g class="medication-legend" transform="translate(1110, 0)"><g transform="translate(0, 18)"><circle fill="black" cy="-3.3333333333333335" r="5"></circle><text font-size="10" transform="translate(10, 0)">EPINEPHrine 16 mcg/mL in dextrose 5% 50 mL infusion</text></g></g></g><g class="x-axis" transform="translate(0, -13)"><g class="d3-axis-top" fill="none" font-size="10" font-family="sans-serif" text-anchor="middle"><path class="domain" stroke="currentColor" d="M0.5,-6V0.5H1100.5V-6"></path><g class="tick" opacity="1" transform="translate(0.5,0)"><line stroke="currentColor" y2="-6"></line><text fill="currentColor" y="-9" dy="0em">Thu 17</text></g><g class="tick" opacity="1" transform="translate(138,0)"><line stroke="currentColor" y2="-6"></line><text fill="currentColor" y="-9" dy="0em">06 AM</text></g><g class="tick" opacity="1" transform="translate(275.5,0)"><line stroke="currentColor" y2="-6"></line><text fill="currentColor" y="-9" dy="0em">12 PM</text></g><g class="tick" opacity="1" transform="translate(413,0)"><line stroke="currentColor" y2="-6"></line><text fill="currentColor" y="-9" dy="0em">06 PM</text></g><g class="tick" opacity="1" transform="translate(550.5,0)"><line stroke="currentColor" y2="-6"></line><text fill="currentColor" y="-9" dy="0em">Fri 18</text></g><g class="tick" opacity="1" transform="translate(688,0)"><line stroke="currentColor" y2="-6"></line><text fill="currentColor" y="-9" dy="0em">06 AM</text></g><g class="tick" opacity="1" transform="translate(825.5,0)"><line stroke="currentColor" y2="-6"></line><text fill="currentColor" y="-9" dy="0em">12 PM</text></g><g class="tick" opacity="1" transform="translate(963,0)"><line stroke="currentColor" y2="-6"></line><text fill="currentColor" y="-9" dy="0em">06 PM</text></g><g class="tick" opacity="1" transform="translate(1100.5,0)"><line stroke="currentColor" y2="-6"></line><text fill="currentColor" y="-9" dy="0em">Sat 19</text></g></g></g><g><text class="title" rotation="0" text-anchor="middle" dominant-baseline="central" font-size="20" transform="translate(550,-78) rotate(0)"></text><text class="title" rotation="-90" text-anchor="middle" dominant-baseline="central" font-size="20" transform="translate(-90,129) rotate(-90)"></text></g><g class="annotations"><g class="annotation"></g></g></g></svg>