<svg xmlns="http://www.w3.org/2000/svg" viewBox="0 0 960 615">
	<g class="graphs" transform="translate(130, 130)">
		<g class="graph" id="graph-0" transform="translate(0, 0)">
			<g class="x-axis">
				<g class="d3-axis-top" fill="none" font-size="10" font-family="sans-serif" text-anchor="middle">
					<path class="domain" stroke="currentColor" d="M0.5,-6V0.5H700.5V-6"></path>
					<g class="tick" opacity="1" transform="translate(0.5,0)">
						<line stroke="currentColor" y2="-6"></line><text fill="currentColor" y="-9" dy="0em">06
							AM</text>
					</g>
					<g class="tick" opacity="1" transform="translate(58.83333333333333,0)">
						<line stroke="currentColor" y2="-6"></line><text fill="currentColor" y="-9" dy="0em">07
							AM</text>
					</g>
					<g class="tick" opacity="1" transform="translate(117.16666666666666,0)">
						<line stroke="currentColor" y2="-6"></line><text fill="currentColor" y="-9" dy="0em">08
							AM</text>
					</g>
					<g class="tick" opacity="1" transform="translate(175.5,0)">
						<line stroke="currentColor" y2="-6"></line><text fill="currentColor" y="-9" dy="0em">09
							AM</text>
					</g>
					<g class="tick" opacity="1" transform="translate(233.83333333333331,0)">
						<line stroke="currentColor" y2="-6"></line><text fill="currentColor" y="-9" dy="0em">10
							AM</text>
					</g>
					<g class="tick" opacity="1" transform="translate(292.1666666666667,0)">
						<line stroke="currentColor" y2="-6"></line><text fill="currentColor" y="-9" dy="0em">11
							AM</text>
					</g>
					<g class="tick" opacity="1" transform="translate(350.5,0)">
						<line stroke="currentColor" y2="-6"></line><text fill="currentColor" y="-9" dy="0em">12
							PM</text>
					</g>
					<g class="tick" opacity="1" transform="translate(408.83333333333337,0)">
						<line stroke="currentColor" y2="-6"></line><text fill="currentColor" y="-9" dy="0em">01
							PM</text>
					</g>
					<g class="tick" opacity="1" transform="translate(467.16666666666663,0)">
						<line stroke="currentColor" y2="-6"></line><text fill="currentColor" y="-9" dy="0em">02
							PM</text>
					</g>
					<g class="tick" opacity="1" transform="translate(525.5,0)">
						<line stroke="currentColor" y2="-6"></line><text fill="currentColor" y="-9" dy="0em">03
							PM</text>
					</g>
					<g class="tick" opacity="1" transform="translate(583.8333333333334,0)">
						<line stroke="currentColor" y2="-6"></line><text fill="currentColor" y="-9" dy="0em">04
							PM</text>
					</g>
					<g class="tick" opacity="1" transform="translate(642.1666666666666,0)">
						<line stroke="currentColor" y2="-6"></line><text fill="currentColor" y="-9" dy="0em">05
							PM</text>
					</g>
					<g class="tick" opacity="1" transform="translate(700.5,0)">
						<line stroke="currentColor" y2="-6"></line><text fill="currentColor" y="-9" dy="0em">06
							PM</text>
					</g>
				</g>
			</g>
			<g class="y-axis"><text class="title" rotation="-90" text-anchor="middle" dominant-baseline="central"
					font-size="12" transform="translate(-55,50) rotate(-90)">(blah)</text>
				<g class="d3-axis-left" fill="none" font-size="10" font-family="sans-serif" text-anchor="end">
					<path class="domain" stroke="currentColor" d="M-6,100.5H0.5V0.5H-6"></path>
					<g class="tick" opacity="1" transform="translate(0,100.5)">
						<line stroke="currentColor" x2="-6"></line><text fill="currentColor" x="-9"
							dy="0.32em">−1.0</text>
					</g>
					<g class="tick" opacity="1" transform="translate(0,75.5)">
						<line stroke="currentColor" x2="-6"></line><text fill="currentColor" x="-9"
							dy="0.32em">−0.5</text>
					</g>
					<g class="tick" opacity="1" transform="translate(0,50.5)">
						<line stroke="currentColor" x2="-6"></line><text fill="currentColor" x="-9"
							dy="0.32em">0.0</text>
					</g>
					<g class="tick" opacity="1" transform="translate(0,25.5)">
						<line stroke="currentColor" x2="-6"></line><text fill="currentColor" x="-9"
							dy="0.32em">0.5</text>
					</g>
					<g class="tick" opacity="1" transform="translate(0,0.5)">
						<line stroke="currentColor" x2="-6"></line><text fill="currentColor" x="-9"
							dy="0.32em">1.0</text>
					</g>
				</g>
			</g>
			<path fill="none" stroke="red" stroke-width="0.5"
				d="M3.678,38.759L6.156,32.024L8.081,24.78L9.07,17.237L9.425,12.509L9.601,13.074L9.97,15.747L10.835,17.102L12.301,18.807L14.267,23.988L15.973,36.278L16.813,55.8L17.597,66.935L19.262,55.952L21.607,35.983L24.11,24.638L26.197,26.745L27.539,40.775L28.972,52.499L31.286,49.051L33.556,40.218L34.687,39.507L35.093,47.57L35.542,59.995L36.401,66.068L37.838,57.282L39.651,44.607L41.647,42.001L44.231,49.579L47.781,61.667L51.664,64.74L55.017,47.742L57.38,24.133L58.916,11.611L62.276,10.357L69.751,14.733L77.652,17.778L81.465,15.4L82.461,20.776L83.372,46.377L84.638,70.726L86.006,68.366L87.629,53.325L89.727,48.385L92.165,51.262L94.658,53.05L96.754,55.755L98.061,63.273L98.847,68.703L99.624,63.756L100.978,54.05L103.321,48.408L105.907,45.324L107.727,40.907L108.715,39.37L109.163,45.8L109.427,52.55L109.945,50.403L111.511,49.643L114.735,63.794L118.25,80.539L120.294,80.988L121.436,67.462L122.97,50.584L124.992,41.156L127.184,47.28L129.601,59.017L132.423,61.551L135.687,55.667L139.276,47.715L142.442,38.688L144.352,28.753L145.352,27.568L146.32,45.098L148.401,65.824L152.526,67.755L157.308,59.679L160.633,60.205L162.307,63.171L162.983,54.577L163.328,42.282L163.985,41.096L165.369,45.389L167.698,42.617L170.461,37.425L172.873,40.239L174.603,45.629L175.6,42.697L176.349,35.114L177.47,32.098L178.672,32.538L179.323,31.734L179.525,35.695L179.738,52.793L180.405,68.431L181.875,60.424L183.747,36.925L185.39,19.864L187.338,20.324L190.512,41.385L194.038,64.63L196.324,64.506L197.438,48.547L198.238,38.859L198.968,34.904L199.614,26.46L200.815,23.614L203.411,43.406L206.876,67.2L210.023,62.006L212.339,40.552L213.715,36.622L214.356,46.241L214.64,47.063L214.92,42.332L215.527,47.426L216.701,54.779L218.57,46.273L220.661,29.586L222.22,25.187L223.141,31.632L223.696,35.652L224.081,35.027L224.443,33.742L224.847,31.192L225.31,24.96L225.842,23.351L226.446,38.88L227.056,58.609L227.614,57.117L228.555,45.197L230.517,52.863L232.913,69.951L234.494,64.15L235.37,43.544L236.453,39.329L237.687,46.71L238.479,40.077L239.423,28.065L241.785,38.845L245.416,60.322L249.238,56.518L252.544,32.07L254.935,17.513L256.647,19.066L258.302,26.442L259.959,36.225L261.295,49.376L262.283,58.608L263.105,52.353L263.886,40.506L264.712,46.499L265.746,68.276L267.192,86.032L269.064,92.873L271.227,91.459L273.429,81.481L275.348,61.129L276.765,41.261L277.567,40.599L277.91,52.663L278.154,53.26L278.59,43.636L279.429,43.964L280.539,57.541L281.555,73.963L282.69,81.632L284.566,69.646L286.854,48.754L288.51,45.597L289.444,61.914L290.327,79.121L291.282,84.683L291.982,72.355L292.402,49.538L292.777,34.195L293.171,32.075L293.509,38.18L293.986,45.692L295.032,47.074L297.05,44.726L300.368,49.03L304.384,57.361L307.728,56.109L309.827,45.453L310.866,37.813L311.353,37.183L312.065,39.569L313.844,41.814L317.519,41.924L322.711,40.641L327.958,40.941L332.581,40.137L336.666,30.626L340.107,15.248L342.607,6.743L344.226,12.097L345.396,31.738L346.904,52.789L349.818,50.746L353.923,27.592L357.749,11.245L360.458,9.6L361.929,9.642L362.543,7.166L363.139,7.655L363.997,10.98L364.814,11.077L365.6,9.758L366.702,16.883L368.02,29.768L368.975,32.624L369.388,25.287L369.526,24.487L369.616,31.214L369.811,28.963L370.292,16.709L371.254,11.169L372.486,20.372L373.357,41.351L374.231,63.592L376.569,69.25L380.38,57.03L383.958,44.719L386.445,38.683L388.091,31.062L389.472,22.706L391.453,25.299L394.091,38.267L396.476,45.932L398.093,41.761L398.98,31.399L399.43,22.305L399.992,23.004L400.798,33.044L401.45,41.001L401.806,44.919L402.087,55.261L402.503,69.339L403.216,67.196L404.243,48.838L405.431,40.972L406.981,49.011L409.576,48.587L413.603,32.349L418.986,18.075L424.694,18.406L428.488,36.439L429.909,61.862L431.023,67.584L432.952,51.899L435.273,49.254L437.433,67.87L438.87,76.042L439.443,64.31L439.614,58.613L439.738,67.091L439.954,68.708L440.416,56.127L441.324,45.076L442.655,42.361L444.062,39.057L445.284,32.926L446.252,33.479L447.534,42.186L450.619,47.011L455.373,44.396L459.068,45.434L460.667,54.868L462.086,65.634L464.417,71.89L467.044,71.362L469.405,63.564L471.274,50.417L472.54,36.857L473.234,32.287L473.524,40.752L473.779,56.751L474.29,69.926L475.191,63.503L476.618,35.685L478.729,10.887L481.306,5.614L483.483,18.41L484.806,39.432L485.639,47.504L486.278,35.028L486.754,20.213L487.137,15.757L487.615,19.823L488.257,26.782L488.898,26.968L489.417,20.166L489.827,24.142L490.543,45.371L492.698,65.82L496.447,71.213L499.963,59.443L502.093,35.93L503.393,17.85L504.87,15.823L508.031,25.209L512.98,39.14L516.969,49.825L518.405,52.978L518.657,51.49L519.391,47.75L522.151,41.42L527.215,32.818L532.312,24.262L536.151,17.556L540.107,12.941L544.753,11.711L548.266,17.765L549.648,30.513L550.295,39.117L551.398,39.362L553.023,44.159L554.89,59.361L556.283,70.447L556.827,66.688L557.039,51.848L557.326,35.482L557.588,35.766L557.722,58.737L557.784,79.971L557.941,80.178L558.57,61.852L559.826,36.298L561.274,28.263L562.505,47.713L563.387,64.731L564.392,57.836L567.351,40.1L572.882,27.413L578.13,29.957L580.916,49.651L582.071,69.975L582.735,77.103L583.678,71.19L585.378,56.651L587.72,43.247L590.356,38.354L592.565,40.938L594.09,47.507L596.046,51.639L599.111,49.213L602.191,43.548L604.319,38.249L605.656,34.349L606.519,32.962L607.129,36.632L607.645,45.781L608.102,54.224L608.516,56.552L608.904,52.82L609.456,46.439L610.869,47.716L613.478,62.061L616.319,76.968L618.688,80.942L621.362,75.146L625.295,63.121L631.149,48.532L638.956,36.289L646.989,35.051L653.492,49.095L657.668,66.906L659.37,77.182L659.912,78.902L660.538,73.186L661.337,61.56L662.324,46.707L664.016,34.801L666.625,31.203L669.011,36.27L670.396,47.856L672.139,58.886L675.304,63.593L678.455,64.127L680.168,63.411L680.885,61.253L681.34,56.917L681.87,50.101L682.655,41.563L683.62,35.483L684.612,35.83L685.398,43.074L685.842,55.321L686.244,64.924L686.909,65.71L687.81,61.863L688.802,58.804L689.598,57.589L690.028,57.957L690.512,58.533L691.43,57.735L692.446,54.194L693.175,47.16L693.702,38.106">
			</path>
			<g class="graph-legend" transform="translate(715, 15)">
				<g transform="translate(0, 0)">
					<circle fill="red" cy="-3.3333333333333335" r="5"></circle><text font-size="10"
						transform="translate(10, 0)">ABP</text>
				</g>
			</g>
		</g>
		<g class="graph" id="graph-1" transform="translate(0, 115)">
			<g class="y-axis"><text class="title" rotation="-90" text-anchor="middle" dominant-baseline="central"
					font-size="12" transform="translate(-55,35) rotate(-90)">(blah)</text>
				<g class="d3-axis-left" fill="none" font-size="10" font-family="sans-serif" text-anchor="end">
					<path class="domain" stroke="currentColor" d="M-6,70.5H0.5V0.5H-6"></path>
					<g class="tick" opacity="1" transform="translate(0,70.5)">
						<line stroke="currentColor" x2="-6"></line><text fill="currentColor" x="-9"
							dy="0.32em">−100</text>
					</g>
					<g class="tick" opacity="1" transform="translate(0,57.772727272727266)">
						<line stroke="currentColor" x2="-6"></line><text fill="currentColor" x="-9"
							dy="0.32em">−80</text>
					</g>
					<g class="tick" opacity="1" transform="translate(0,45.04545454545455)">
						<line stroke="currentColor" x2="-6"></line><text fill="currentColor" x="-9"
							dy="0.32em">−60</text>
					</g>
					<g class="tick" opacity="1" transform="translate(0,32.31818181818182)">
						<line stroke="currentColor" x2="-6"></line><text fill="currentColor" x="-9"
							dy="0.32em">−40</text>
					</g>
					<g class="tick" opacity="1" transform="translate(0,19.59090909090909)">
						<line stroke="currentColor" x2="-6"></line><text fill="currentColor" x="-9"
							dy="0.32em">−20</text>
					</g>
					<g class="tick" opacity="1" transform="translate(0,6.863636363636366)">
						<line stroke="currentColor" x2="-6"></line><text fill="currentColor" x="-9" dy="0.32em">0</text>
					</g>
				</g>
			</g>
			<path fill="none" stroke="orange" stroke-width="0.5"
				d="M5.574,54.671L6.513,45.326L8.094,38.374L10.757,35.576L14.106,36.105L17.647,38.234L21.336,39.222L25.142,37.252L28.621,35.466L31.291,36.577L33.002,35.963L33.784,29.189L34.074,21.028L34.331,17.585L34.622,19.918L34.952,27.41L35.538,38.119L36.535,48.559L37.578,49.94L38.322,36.927L39.21,26.866L40.893,36.742L43.937,51.635L48.503,52.096L52.932,41.048L55.578,27.796L57.41,20.607L59.821,24.791L62.438,32.8L64.644,35.186L67.276,32.459L71.191,27.757L75.094,22.007L77.391,15.964L78.389,13.036L78.947,15.867L79.629,18.789L80.773,15.832L82.041,13.533L82.958,19.917L83.538,29.116L83.971,32.398L84.546,30.504L85.484,27.193L86.437,25.277L86.961,26.214L87.17,25.717L87.329,19.543L87.48,15.023L87.973,20.526L91.383,26.94L99.995,22.621L109.739,17.675L115.323,26.294L117.872,40.098L120.36,44.793L122.683,40.55L123.804,32.67L124.016,24.773L124.041,20.003L124.158,22.511L124.575,35.09L126.135,49.477L129.609,54.449L133.706,47.456L136.784,31.057L140.237,18.76L146.133,24.582L152.922,36.844L157.921,36.934L160.755,29.993L162.095,29.201L163.287,35.62L165.681,45.196L168.742,53.695L171.256,56.877L172.896,50.93L173.758,33.919L174.244,16.026L174.821,10.635L175.472,15.892L175.993,23.896L176.357,32.053L176.617,39.76L176.797,43.373L176.922,39.331L177.102,35.376L177.467,41.873L178.001,48.927L178.611,40.088L179.146,22.246L179.475,11.638L179.839,10.281L180.586,13.648L181.452,19.948L181.938,28.601L182.081,37.784L182.19,44.905L182.57,46.108L183.473,38.062L184.648,27.419L185.731,24.786L187.589,30.914L191.446,41.174L196.046,48.541L199.105,45.927L200.791,36.817L202.45,29.897L204.261,30.089L205.799,39.336L206.938,50.913L207.773,54.346L208.916,48.314L211.122,36.968L213.745,28.163L215.556,30.334L217.293,37.415L220.622,36.617L225.27,30.407L229.886,29L233.538,31.493L235.658,31.104L236.774,28.021L237.968,26.153L239.333,24.643L240.416,20.204L241.369,14.534L242.696,12.294L244.774,17.148L247.801,31.003L250.987,43.285L253.041,37.574L254.009,19.46L254.757,7.533L255.744,8.801L257.127,22.176L258.688,40.432L259.993,53.026L260.88,56.571L261.393,52.654L261.868,45.505L262.793,40.695L264.164,39.21L265.66,38.971L267.211,38.624L268.934,37.262L271.055,32.725L273.821,22.629L276.704,13.135L278.755,15.337L280.574,25.612L283.749,30.739L288.122,31.156L292.292,36.382L295.382,42.493L296.985,36.79L297.69,24.17L298.76,21.551L300.6,28.312L302.936,31.25L305.157,29.769L306.493,32.585L307.443,40.039L309.387,46.128L312.03,49.753L313.829,53.492L314.507,55.288L314.831,49.962L315.669,42.597L317.874,45.71L321.071,57.078L323.924,62.91L325.82,59.869L326.791,53.291L327.256,44.386L327.908,31.133L328.819,19.292L329.551,20.567L330.072,33.343L330.702,44.863L331.588,50.9L332.706,54.885L333.893,58.603L334.88,62.121L335.548,64.962L335.924,66.157L336.104,63.777L336.244,55.399L336.478,45.895L336.904,46.112L337.441,51.969L337.907,46.163L339.454,29.549L344.341,19.873L351.47,19.851L356.638,17.749L358.821,13.378L360.14,17.695L361.722,28.619L363.579,31.388L365.393,23.652L366.586,15.718L367.06,13.153L367.206,16.104L367.312,22.335L367.533,27.566L367.913,31.049L368.393,35.707L369.17,42.579L370.693,50.425L372.877,54.535L375.09,47.132L377.549,33.448L381.349,32.152L385.95,43.053L389.057,45.275L390.534,33.842L392.657,22.245L395.872,17.625L398.47,18.891L399.805,22.969L400.567,25.185L401.708,25.52L404.348,29.274L408.067,37.939L410.699,48.168L411.785,54.428L412.963,49.193L414.717,33.502L416.033,18.688L416.652,13.868L417.318,24.409L418.33,44.335L419.363,54.48L420.233,51.139L420.984,50.463L422.111,55.971L424.62,54.029L428.216,42.562L430.936,35.348L432.301,35.598L433.863,31.803L436.378,23.123L439.373,23.653L442.168,34.557L443.936,38.758L444.536,29.943L444.769,17.931L445.52,11.251L447.676,15.001L451,28.375L453.724,42.784L455.259,50.469L456.812,45.835L459.201,33.072L462.491,29.727L466.301,39.027L469.698,42.401L472.18,32.964L473.932,23.197L475.42,20.215L477.429,20.935L480.156,21.636L482.881,18.931L485.118,13.382L486.849,11.429L488.125,15.914L489.034,23.398L489.673,30.511L490.143,34.858L490.606,36.442L491.317,38.854L492.39,41.407L493.694,36.2L494.994,23.924L495.92,20.087L496.359,28.417L496.635,31.207L497.048,21.608L497.781,14.077L498.77,16.065L499.554,19.838L499.965,21.22L500.406,24.607L501.064,32.207L501.661,40.971L502.195,48.33L503.23,53.462L504.969,53.913L506.882,44.08L508.476,25.309L509.474,12.029L509.983,13.524L510.769,27.075L512.308,45.452L514.419,55.482L517.116,50.964L520.924,40.028L525.628,30.765L529.506,28.127L531.888,32.889L534.463,38.446L538.101,40.494L541.542,40.905L543.816,42.25L545.035,47.032L545.495,53.145L545.609,49.266L545.694,33.255L545.848,23.959L546.351,31.361L547.914,41.745L550.725,44.691L553.756,42.913L556.141,39.944L557.68,37.511L558.448,36.547L558.939,36.763L559.677,36.538L561.146,31.7L563.383,21.853L565.451,15.749L566.688,19.084L567.341,27.867L568.093,36.82L570.343,40.769L574.967,36.753L581.406,26.924L588.467,16.774L593.941,17.923L596.514,33.223L597.352,42.517L597.672,33.729L597.937,22.508L598.391,20.417L599.024,18.876L599.896,11.722L601.341,6.382L603.519,8.081L606.037,11.218L608.41,11.646L610.134,13.272L610.974,17.928L611.405,18.754L611.868,12.219L612.426,7.259L613.07,9.952L613.764,13.271L614.475,12.136L615.193,12.659L616.072,20.394L617.713,34.16L620.412,48.686L623.403,50.493L626.138,34.131L629.219,20.977L633.03,25.983L636.737,31.957L639.625,25.802L641.943,23.217L643.976,36.332L645.578,51.161L646.606,54.791L647.156,52.059L647.515,49.136L648.425,46.085L650.296,43.157L652.245,44.772L653.536,51.917L654.682,52.241L656.167,38.005L657.594,24.577L658.574,26.019L659.293,37.241L660.019,49.672L660.896,56.045L662.026,52.08L663.464,42.574L665.142,33.161L666.598,25.896L667.53,22.824L668.479,28.563L669.941,44.44L671.635,58.356L673.381,59.898L675.971,55.039L679.877,50.505L683.666,42.671L686.003,28.754L687.481,17.566L688.914,17.225L690.293,23.458L691.488,29.895L692.624,33.069L693.789,31.392L694.699,27.849L695.107,25.87L695.236,26.373L695.36,29.38L695.513,33.778">
			</path>
			<g class="graph-legend" transform="translate(715, 15)">
				<g transform="translate(0, 0)">
					<circle fill="orange" cy="-3.3333333333333335" r="5"></circle><text font-size="10"
						transform="translate(10, 0)">ECG</text>
				</g>
			</g>
		</g>
		<g class="graph" id="graph-2" transform="translate(0, 200)">
			<g class="y-axis"><text class="title" rotation="-90" text-anchor="middle" dominant-baseline="central"
					font-size="12" transform="translate(-55,40) rotate(-90)">(units)</text>
				<g class="d3-axis-left" fill="none" font-size="10" font-family="sans-serif" text-anchor="end">
					<path class="domain" stroke="currentColor" d="M-6,80.5H0.5V0.5H-6"></path>
					<g class="tick" opacity="1" transform="translate(0,80.5)">
						<line stroke="currentColor" x2="-6"></line><text fill="currentColor" x="-9"
							dy="0.32em">0.50</text>
					</g>
					<g class="tick" opacity="1" transform="translate(0,64.49999999999999)">
						<line stroke="currentColor" x2="-6"></line><text fill="currentColor" x="-9"
							dy="0.32em">0.52</text>
					</g>
					<g class="tick" opacity="1" transform="translate(0,48.499999999999964)">
						<line stroke="currentColor" x2="-6"></line><text fill="currentColor" x="-9"
							dy="0.32em">0.54</text>
					</g>
					<g class="tick" opacity="1" transform="translate(0,32.49999999999995)">
						<line stroke="currentColor" x2="-6"></line><text fill="currentColor" x="-9"
							dy="0.32em">0.56</text>
					</g>
					<g class="tick" opacity="1" transform="translate(0,16.500000000000014)">
						<line stroke="currentColor" x2="-6"></line><text fill="currentColor" x="-9"
							dy="0.32em">0.58</text>
					</g>
					<g class="tick" opacity="1" transform="translate(0,0.5)">
						<line stroke="currentColor" x2="-6"></line><text fill="currentColor" x="-9"
							dy="0.32em">0.60</text>
					</g>
				</g>
			</g>
			<path fill="none" stroke="blue" stroke-width="0.5"
				d="M2.033,43.535L5.212,40.785L8.001,40.861L10.083,45.51L11.435,52.097L12.2,57.105L12.897,57.952L14.025,53.14L15.597,44.695L17.53,36.171L19.863,33.702L22.55,41.438L25.041,52.033L26.801,56.899L27.966,55.588L28.942,49.627L30.515,39.434L33.224,26.597L36.035,19.385L37.755,24.881L38.517,36.109L38.822,43.538L39.155,44.49L39.917,39.823L41.159,37.695L42.804,44.737L44.661,49.959L46.525,41.44L48.285,28.434L49.972,23.654L52.193,25.129L55.424,27.491L58.593,31.069L60.438,36.948L61.202,41.002L61.547,39.164L61.811,36.245L62.283,38.628L63.525,45.926L65.963,55.192L68.828,61.647L71.267,61.394L74.107,58.611L78.304,59.161L82.393,63.226L84.555,68.22L85.6,66.961L87.087,53.302L89.643,36.009L93.337,27.333L96.96,29.316L99.13,39.615L100.156,51.581L100.851,58.447L101.362,61.988L101.617,65.397L101.7,61.425L101.768,42.04L102.048,18.306L102.762,5.917L103.937,4.371L105.504,7.743L107.286,15.177L109.046,26.671L110.434,35.004L111.162,32.059L111.645,22.514L112.515,15.59L113.964,16.617L115.936,27.561L117.877,38.468L119.155,37.417L120.01,32.702L120.97,38.154L122.036,47.245L123.008,47.209L123.886,42.36L124.73,42.93L125.472,48.74L126.063,55.008L127.041,56.641L129.056,49.838L131.668,41.367L134.115,41.03L136.913,45.745L140.924,47.694L145.227,47.818L148.255,50.343L149.864,53.427L150.583,53.213L150.952,52.488L151.518,56.241L152.833,61.76L155.298,63.016L158.09,57.275L159.943,44.228L160.93,30.28L161.733,23.777L162.529,21.406L163.25,15.487L163.881,11.203L164.517,18.292L165.93,28.835L169.034,27.835L172.871,18.567L175.685,13.153L177.398,16.86L178.757,30.079L179.833,42.195L180.415,38.733L181.08,24.293L182.711,12.867L184.992,8.576L187.009,10.085L188.43,16.615L189.272,27.631L189.672,41.601L189.844,55.98L190.045,63.789L190.524,57.029L191.193,43.334L191.818,38.155L192.728,43.151L194.48,51.696L196.529,56.619L197.773,51.701L198.242,43.862L198.622,46.63L199.188,58.504L199.946,69.183L200.831,74.341L201.734,73.349L202.588,64.204L203.35,45.244L203.933,29.158L204.298,35.22L205.299,51.671L208.189,49.44L212.039,34.847L214.632,35.183L215.637,46.32L215.98,45.015L216.314,34.655L217.05,35.266L218.015,46.065L218.703,52.44L219.396,48.53L220.863,35.463L222.968,23.726L224.96,28.616L226.46,42.746L227.392,44.033L228.05,32.064L228.95,21.678L230.065,18.264L231.035,20.025L232.433,25.216L235.424,32.197L239.525,38.443L243.073,40.987L245.457,40.164L246.896,38.786L247.684,38.838L248.185,41.467L249.188,45.48L251.71,47.936L255.232,47.105L258.1,42.32L260.175,34.101L262.499,24.016L265.121,15.672L267.274,14.029L268.693,19.355L269.556,27.955L270.227,35.3L271.189,36.748L272.493,36.111L273.824,43.577L274.924,55.062L275.611,54.923L275.951,43.694L276.281,35.735L278.016,34.316L283.322,32.815L290.721,30.392L295.638,31.351L297.217,33.528L298.013,29.283L299.538,21.993L302.177,24.744L305.313,38.823L307.51,54.363L309.001,65.014L311.553,68.367L315.481,66.898L319.667,67.223L323.151,67.736L325.219,59.232L325.946,43.958L326.164,35.201L326.672,35.069L328.157,34.485L330.332,33.216L331.969,40.015L332.723,54.182L333.2,65.225L334.185,68.853L336.558,67.598L340.12,63.046L343.562,55.572L346.444,48.385L349.286,47.413L352.44,49.275L356.007,41.069L359.659,26.725L362.635,28.269L364.625,47.275L365.858,62.187L366.877,64.157L368.518,59.876L370.734,56.025L372.488,58.124L373.599,65.149L374.906,68.763L376.657,64.273L378.348,51.867L379.704,37.243L380.769,31.951L381.559,37.572L382.061,43.611L382.951,47.113L385.704,54.898L390.188,66.536L394.272,72.129L396.89,66.577L398.458,51.572L399.708,33.306L401.614,22.945L404.149,26.035L406.009,40.424L406.793,58.84L407.369,68.23L408.225,62.757L409.247,46.648L410.424,28.944L411.93,23.874L413.872,33.208L416.235,41.698L418.7,43.115L420.547,45.003L421.633,48.512L422.645,44.779L424.328,33.548L427.395,27.49L431.45,32.721L434.551,44.685L435.852,58.387L436.249,69.354L436.552,72.445L437.249,61.691L438.858,41.788L441.956,33.009L446.055,41.188L449.089,48.848L450.261,46.945L450.881,42.078L451.781,38.436L452.791,34.534L453.873,31.041L455.326,32.66L457.057,40.573L458.322,49.878L458.813,57.303L459.015,63.006L459.389,64.333L460.24,53.715L461.582,33.46L462.975,22.71L464.269,30.375L465.869,45.725L467.928,58.488L470.093,62.361L471.989,55.647L473.295,43.902L473.964,34.627L474.418,37.354L474.917,51.654L475.353,59.34L475.715,52.083L476.233,42.289L477.149,37.178L478.681,30.779L480.653,22.862L482.176,26.145L482.795,41.976L482.994,48.126L483.181,34.822L483.425,20.508L483.8,17.201L484.456,18.7L485.875,20.298L489.151,24.124L494.459,30.751L500.034,36.18L504.674,39.578L508.744,47.43L512.491,60.707L515.54,67.55L517.708,62.008L519.349,53.361L520.692,49.184L521.572,49.636L522.025,52.566L522.61,52.906L524.029,47.074L527.145,35.449L532.056,20.922L537.159,10.694L541.219,10.476L544.292,21.452L546.648,40.242L548.65,54.672L550.497,57.756L551.993,56.874L553.041,57.813L553.895,58.216L554.868,56.849L556.296,57.723L558.245,63.153L560.145,69.714L561.525,73.767L562.37,73.133L562.822,66.285L563.246,52.763L563.885,35.909L564.601,27.998L565.367,33.872L566.579,36.498L568.361,24.733L569.996,10.8L570.943,7.031L571.454,16.691L571.984,35.695L573.203,44.581L575.506,32.091L578.474,15.142L581.538,9.409L584.088,14.927L586.091,28.371L589.088,44.328L593.827,56.171L598.135,54.911L600.676,38.295L603.868,24.052L609.482,24.528L615.621,26.934L620.414,21.892L623.932,22.596L626.528,38.394L628.352,55.558L629.584,61.394L630.599,58.718L631.826,51.717L633.746,40.092L636.676,24.728L640.398,12.701L644.375,10.193L647.41,16.94L648.703,30.474L649.137,45.294L649.722,55.013L650.84,52.323L652.548,35.819L654.244,23.836L655.503,29.774L656.899,37.635L658.859,33.444L660.619,30.135L661.517,38.527L662.075,43.241L662.949,32.625L664.384,26.928L666.346,42.288L668.142,56.506L669.228,48.414L670.114,30.189L671.324,18.36L672.598,18.541L673.684,30.427L675.005,41.045L677.034,40.421L679.873,40.422L683.298,51.783L686.185,61.901L687.774,57.806L689.491,46.127L692.604,36.731L695.728,33.888L697.347,39.218L697.965,49.259">
			</path>
			<path fill="none" stroke="green" stroke-width="0.5"
				d="M3.795,3.592L4.247,18.361L5.144,28.846L6.703,32.709L8.222,35.523L9.136,41.872L10.416,44.01L13.02,35.067L16.197,25.134L19.029,25.233L21.797,31.476L24.875,37.748L27.656,45.39L29.5,55.477L30.774,59.092L32.003,48.318L33.19,31.834L34.258,21.215L35.422,20.292L36.981,29.351L39.224,42.428L42.22,52.918L45.023,59.561L46.658,62.413L47.426,60.434L47.931,53.541L48.461,47.807L49.175,48.807L50.094,50.749L51.158,46.993L52.111,43.819L52.727,48.606L53.224,54.278L53.922,51.647L54.943,43.828L56.282,36.667L57.583,29.928L58.555,23.144L59.842,24.95L62.11,42.849L64.507,62.397L65.941,66.467L66.74,62.855L67.722,64.838L69.772,69.639L73.493,69.474L77.786,59.264L81.182,37.479L83.478,17.379L84.914,13.825L85.732,20.919L86.385,26.615L88.571,26.319L93.837,19.246L100.119,11.152L104.56,8.991L107.49,12.44L110.212,18.565L112.67,25.074L114.388,30.307L115.475,34.992L116.321,40.068L117.635,42.026L120.024,37.135L122.588,31.378L124.058,33.074L124.593,40.68L124.96,49.188L126.152,56.867L129.006,62.491L132.716,59.232L135.945,40.725L138.365,19.609L140.103,13.673L141.508,21.137L142.942,32.259L144.212,39.802L144.958,39.081L145.324,35.878L145.646,38.836L146.062,44.121L146.628,43.373L147.456,35.705L148.671,24.358L150.263,18.29L152.138,26.779L154.019,41.663L155.609,48.234L157.139,43.614L159.007,31.471L161.006,23.294L162.682,31.185L163.89,42.408L164.672,35.971L165.326,21.273L166.212,19.392L167.114,24.773L167.597,21.375L167.755,16.408L167.933,26.113L168.325,43.588L169.076,51.978L170.592,50.843L173.323,47.504L176.882,42.51L180.467,33.608L183.447,25.599L185.365,26.252L186.507,36.107L187.506,51.281L188.532,63.123L189.509,62.177L190.447,55.867L191.405,59.152L192.399,69.428L193.486,74.985L195.398,71.927L199.053,61.037L203.447,44.883L206.63,27.432L208.3,16.827L209.117,21.819L209.68,32.348L210.494,29.272L211.59,15.321L212.709,5.754L213.608,8.546L214.163,26.081L215.484,49.112L219.184,62.119L223.991,59.051L227.114,40.987L228.975,22.037L231.847,22.17L235.644,34.376L238.867,36.215L241.439,28.228L244.133,25.068L246.663,29.222L248.152,34.948L249.196,35.997L251.236,26.72L253.869,11.996L255.551,3.471L256.226,8.258L256.824,29.151L257.66,54.584L258.624,64.34L259.836,55.21L261.549,36.45L263.45,21.968L264.877,27.065L265.926,43.148L267.204,46.243L268.75,39.458L270.203,44.398L271.594,59.412L273.231,66.157L275.091,59.638L276.904,45.275L278.555,29.299L280.043,18.212L281.324,16.222L282.33,25.255L283.188,39.611L284.182,48.111L285.693,46.81L288.111,37.776L290.842,25.41L292.595,15.636L293.775,10.751L296.078,9.952L299.45,10.742L302.427,9.654L304.671,9.303L306.818,16.929L309.408,31.253L312.814,43.961L316.363,52.305L318.564,58.431L319.294,62.915L319.625,64.92L320.13,65.299L320.91,66.286L322.078,67.175L323.818,64.78L327.214,59.575L333.988,55.277L342.524,52.408L348.285,48.485L350.233,41.681L350.694,31.141L352.124,21.387L356.821,21.498L363.778,30.486L368.964,37.863L371.233,39.233L372.311,36.514L373.184,32.7L373.985,31.375L374.711,31.456L375.296,27.578L376.65,23.223L380.557,30.324L386.267,45.5L390.498,50.07L392.312,42.286L393.272,38.071L394.183,39.898L394.953,35.809L396.001,26.838L398.283,27.945L401.443,38.934L403.747,43.045L405.113,35.49L407.286,25.269L410.656,17.392L414.033,11.807L416.618,11.455L418.171,22.52L419.342,39.717L421.728,45.14L425.96,37.874L431.499,36.752L437.437,44.136L442.535,42.41L446.112,27.757L448.172,13.732L449.027,6.998L449.298,4.83L449.395,5.797L449.453,10.659L449.694,18.746L450.458,27.468L451.774,33.792L453.273,34.425L454.663,31.242L455.788,32.496L457.073,41.018L459.637,52.2L463.376,61.271L466.568,64.003L468.381,61.435L469.293,61.291L469.796,64.946L470.294,64.836L471.186,57.353L472.878,45.133L475.753,35.141L480.137,39.292L485.29,53.84L489.034,53.412L490.634,34.867L491.506,27.99L492.447,43.508L493.153,61.762L493.65,68.947L494.551,63.135L495.991,49.646L497.361,42.796L498.688,45.158L501.005,41.148L504.294,27.083L506.866,19.081L508.098,23.139L509.188,27.554L510.981,26.324L513.539,24.433L516.913,23.807L521.235,20.224L525.954,13.626L529.46,11.314L531.127,17.514L532.049,30.455L533.032,45.39L534.164,53.696L535.552,51.906L537.435,45.578L539.71,38.29L541.684,28.982L542.937,20.955L543.596,25.485L543.925,42.803L544.328,53.081L545.205,49.157L546.926,49.141L549.302,61.644L551.174,74.195L551.931,78.321L552.116,76.512L552.288,71.198L552.816,62.67L553.866,51.28L555.278,37.937L556.75,26.664L557.79,27.071L558.238,39.639L558.59,46.601L559.241,40.291L560.24,36.111L561.616,42.216L563.428,47.729L565.494,45.214L567.155,38.261L568.111,31.09L568.883,26.619L569.81,27.476L570.676,35.992L571.783,50.683L574.634,62.363L579.585,65.411L584.313,63.551L587.178,59.248L588.668,49.907L589.432,36.873L589.884,31.237L590.339,36.889L590.96,39.468L591.791,32.264L592.656,30.529L593.433,40.941L594.182,44.651L594.925,31.638L595.547,19.554L595.961,20.53L596.197,25.38L596.58,26.275L598.097,25.427L601.008,26.456L603.661,32.946L604.927,44.944L605.597,54.083L606.356,55.14L606.961,53.491L607.218,54.516L607.4,59.727L607.732,67.286L608.152,68.485L608.675,59.164L609.63,49.322L611.152,46.207L612.755,44.354L614.074,39.858L615.31,38.108L616.626,41.765L617.836,42.344L618.899,34.714L620.294,27.586L622.274,28.552L624.251,35.927L625.804,45.464L627.372,50.162L629.349,47.392L631.607,48.073L633.851,58.323L635.582,63.948L636.59,54.493L637.597,40.587L639.097,33.279L640.431,33.81L641.159,40.101L642.119,45.512L643.899,44.446L645.62,36.985L646.479,26.083L646.757,20.216L646.862,24.339L646.973,29.228L647.183,26.515L647.459,19.158L647.754,12.201L648.05,10.266L648.447,14.995L649.399,18.665L651.117,16.785L652.779,21.749L653.679,41.148L654.221,54.936L655.042,46.981L656.808,33.96L659.725,33.307L662.413,41.161L663.827,49.264L665.292,50.001L667.965,39.518L670.58,26.808L671.83,22.015L672.189,29.19L672.484,47.446L673.374,62.861L675.207,62.818L677.321,50.568L679.26,33.315L682.203,19.288L687.038,15.054L692.046,19.903L695.413,31.136L697.365,45.073L698.561,58.561L699.41,71.454">
			</path>
			<g class="graph-legend" transform="translate(715, 15)">
				<g transform="translate(0, 0)">
					<circle fill="blue" cy="-3.3333333333333335" r="5"></circle><text font-size="10"
						transform="translate(10, 0)">ICP</text>
				</g>
				<g transform="translate(0, 15)">
					<circle fill="green" cy="-3.3333333333333335" r="5"></circle><text font-size="10"
						transform="translate(10, 0)">CPP</text>
				</g>
			</g>
		</g>
		<g class="graph" id="graph-3" transform="translate(0, 295)">
			<g class="y-axis"><text class="title" rotation="-90" text-anchor="middle" dominant-baseline="central"
					font-size="12" transform="translate(-55,30) rotate(-90)">(mmHg)</text>
				<g class="d3-axis-left" fill="none" font-size="10" font-family="sans-serif" text-anchor="end">
					<path class="domain" stroke="currentColor" d="M-6,60.5H0.5V0.5H-6"></path>
					<g class="tick" opacity="1" transform="translate(0,53.83333333333333)">
						<line stroke="currentColor" x2="-6"></line><text fill="currentColor" x="-9"
							dy="0.32em">0.0002</text>
					</g>
					<g class="tick" opacity="1" transform="translate(0,40.5)">
						<line stroke="currentColor" x2="-6"></line><text fill="currentColor" x="-9"
							dy="0.32em">0.0004</text>
					</g>
					<g class="tick" opacity="1" transform="translate(0,27.16666666666667)">
						<line stroke="currentColor" x2="-6"></line><text fill="currentColor" x="-9"
							dy="0.32em">0.0006</text>
					</g>
					<g class="tick" opacity="1" transform="translate(0,13.833333333333332)">
						<line stroke="currentColor" x2="-6"></line><text fill="currentColor" x="-9"
							dy="0.32em">0.0008</text>
					</g>
					<g class="tick" opacity="1" transform="translate(0,0.5)">
						<line stroke="currentColor" x2="-6"></line><text fill="currentColor" x="-9"
							dy="0.32em">0.0010</text>
					</g>
				</g>
			</g>
			<path fill="none" stroke="black" stroke-width="0.5"
				d="M3.957,52.11L10.73,37.024L15.877,23.833L18.421,15.181L20.007,16.749L22.351,31.13L24.725,45.002L26.081,45.176L26.68,36.187L27.058,26.205L27.464,19.143L28.073,17.594L29.077,23.339L30.53,36.206L31.873,48.429L32.639,52.52L33.512,51.47L35.436,50.426L39.08,51.141L44.684,53.43L50.896,52.602L56.269,44.896L61.029,36.849L65.623,35.843L69.23,39.082L71.028,41.835L71.997,44.459L73.355,48.325L74.876,52.324L76.053,54.704L77.162,54.281L78.572,50.421L79.909,44.379L80.695,38.368L81.11,36.455L81.482,41.381L81.837,45.982L82.147,42.739L82.634,39.07L83.513,44.398L84.534,52.776L85.349,54.615L85.931,48.267L86.362,36.219L86.765,28.981L87.289,36.366L88.16,48.968L89.644,52.845L92.063,46.179L95.541,32.446L98.936,21.019L100.945,21.231L101.971,29.861L102.887,39.365L103.692,43.587L104.185,38.482L104.919,29.675L106.612,25.35L109.318,27.26L112.749,33.713L116.095,36.741L118.489,28.735L119.997,19.599L121.009,23.032L121.692,33.235L122.165,38.124L122.825,34.922L124.053,25.723L125.392,20.125L126.194,27.797L126.855,38.382L128.072,36.209L129.684,25.828L131.212,18.854L132.496,17.111L133.549,18.619L134.658,24.024L136.135,34.29L137.631,44.537L138.605,48.188L139.224,44.918L139.903,37.585L140.588,32.1L141.041,34.242L141.261,38.515L141.445,36.177L142.468,33.007L145.28,39.138L148.937,46.31L151.789,40.524L153.592,30.698L154.783,33.804L155.882,43.896L157.361,45.945L159.008,41.249L160.335,38.349L161.349,39.482L162.268,43.517L163.054,47.531L163.581,48.062L164.094,44.675L164.998,38.809L166.441,34.743L168.393,37.411L170.461,44.601L172.127,50.432L173.438,49.783L174.695,39.245L175.789,27.291L176.526,27.007L178.003,34.866L181.8,39.229L187.358,37.79L193.03,33.567L198.107,30.649L202.395,32.852L205.564,35.655L207.377,31.14L209.356,24.825L213.704,28.358L219.185,36.674L222.821,36.525L224.403,31.546L225.318,33.795L226.328,38.027L227.756,30.359L229.341,16.416L230.548,12.474L231.618,20.637L233.202,34.177L235.163,46.368L236.896,50.998L238.147,46.715L238.91,35.556L239.428,23.16L240.109,16.871L241.515,17.28L244.187,20.797L247.296,26.611L249.24,35.4L249.981,43L250.504,42.566L251.334,34.337L252.651,23.36L254.343,14.333L256.17,11.198L258.769,12.103L263.216,11.646L268.375,10.737L271.712,14.488L273.032,24.014L273.77,37.193L274.564,47.545L275.451,46.352L276.53,36.914L277.934,30.62L279.462,27.88L280.688,21.58L281.521,15.863L282.122,22.329L282.566,35.376L282.88,37.366L283.441,29.503L284.848,26.869L286.911,30.145L288.843,29.03L290.282,22.489L291.234,16.984L291.985,17.271L293.011,26.068L294.324,37.914L295.563,41.332L296.563,35.068L297.329,26.449L297.957,22.548L298.602,29.443L299.261,43.407L299.807,52.832L300.369,53.462L301.277,47.723L302.535,40.683L303.864,39.122L305.028,42.377L305.858,43.435L306.459,40.363L307.181,35.943L308.299,32.316L309.988,30.871L311.867,32.382L313.105,37.004L314.011,43.233L315.897,48.054L318.585,48.688L320.522,42.91L321.584,34.41L323.016,32.036L325.022,34.456L326.764,30.868L327.902,23.349L328.629,26.331L329.165,39.403L329.727,47.361L330.342,45.937L330.859,42.296L331.278,38.554L331.769,31.347L332.502,21.737L333.628,15.46L334.934,14.288L335.844,15.685L336.365,18.865L337.118,25.017L338.309,32.794L339.663,38.047L340.962,37.439L342.083,28.967L343.18,18.91L344.69,22.042L346.586,37.034L348.325,44.537L349.905,39.031L351.956,31.532L354.493,27.212L356.81,23.592L358.566,20.753L359.899,22.108L361.053,26.803L362.366,28.838L363.955,25.472L365.674,18.299L367.344,12.039L368.773,14.662L369.939,26.674L371.034,39.259L372.162,46.109L373.315,44.854L374.645,37.282L376.504,30.05L378.666,27.656L380.17,31.371L380.702,39.616L380.848,47.398L381.35,49.592L383.051,41.433L385.738,27.365L387.814,23.687L388.599,32.623L388.777,36.618L388.858,28.703L388.986,18.186L389.221,12.319L389.541,13.833L389.895,21.693L390.198,30.077L390.553,34.077L391.326,30.677L392.571,21.514L393.871,14.64L395.068,15.079L396.434,22.649L397.987,33.112L399.327,36.996L400.305,32.204L401.198,28.231L402.347,30.591L404.132,37.29L406.69,44.108L409.787,44.478L412.901,38.384L415.124,36.226L416.246,42.121L417.207,48.875L418.928,50.805L422.131,46.29L426.706,36.785L431.24,28.113L435.261,24.543L440.016,27.092L445.648,34.417L450.206,41.77L452.867,46.123L455.045,47.92L458.034,48.525L462.542,50.279L468.125,52.812L472.454,50.925L474.453,42.472L475.575,31.531L476.94,22.944L478.615,21.738L480.491,28.515L482.331,35.861L483.923,37.709L485.117,32.057L485.932,22.458L486.676,21.89L487.754,34.738L489.68,47.318L492.513,50.351L495.42,46.802L497.772,41.25L499.535,38.7L500.817,41.235L501.876,45.103L502.848,47.361L503.585,48.022L504.035,47.219L504.395,44.61L504.911,40.092L505.863,34.17L507.342,27.415L509.043,20.391L510.653,14.182L511.947,10.962L512.94,11.735L514.143,14.7L515.816,17.466L517.536,17.145L518.913,13.097L519.832,9.742L520.68,10.239L522.885,13.444L526.888,17.217L530.596,18.487L532.553,16.29L533.561,14.764L534.43,16.559L535.261,19.218L536.436,21.152L539.232,24.51L544.054,30.277L548.914,35.367L552.243,36.898L554.322,33.936L555.842,27.449L557.822,22.372L560.815,21.279L564.093,19.391L567.023,15.089L569.711,17.595L572.366,31.62L575.165,45.99L578.027,51.943L580.219,53.546L581.493,53.976L583.149,48.63L586.193,36.379L590.157,28.796L594.204,33.435L597.153,41.204L598.535,43.614L600.017,41.582L602.809,37.693L605.833,34.713L608.165,34.071L610.443,33.316L613.189,31.495L615.793,33.95L617.671,42.881L618.914,48.021L619.745,41.571L620.412,29.79L621.144,19.687L622.093,12.729L623.277,9.253L624.355,9.323L625.123,12.934L626.014,20.025L627.422,29.732L629.229,38.707L631.222,43.458L633.209,41.601L635.163,33.636L637.582,28.715L640.724,32.637L643.712,34.436L645.813,25.091L647.554,13.591L649.694,9.165L652.892,9.111L657.288,9.732L661.308,12.614L663.568,19.55L664.628,29.093L665.32,39.171L665.919,47.997L666.624,53.016L667.786,48.661L669.66,32.494L672.018,15.979L674.51,10.671L676.743,16.692L678.428,29.948L679.711,40.437L681.087,39.846L683.982,31.623L689.182,21.59L694.127,13.871L696.322,11.043L696.716,11.211">
			</path>
			<path fill="none" stroke="purple" stroke-width="0.5"
				d="M7.365,21.858L7.611,20.901L8.937,24.921L11.909,35.43L15.009,39.865L17.012,28.669L20.057,19.403L26.013,29.336L31.988,45.28L34.942,50.943L36.488,50.688L38.816,51.492L41.26,47.948L42.818,35.375L44.376,26.911L46.978,35.033L50.068,47.633L52.768,49.275L54.743,40.348L55.972,26.734L57.15,19.046L59.023,25.733L61.609,38.903L64.654,47.889L67.599,51.359L69.903,50.419L71.551,44.66L72.673,34.73L73.357,28.621L73.689,32.957L73.833,36.571L73.995,27.745L74.471,19.504L75.522,27.393L77.089,40.31L78.969,42.355L80.739,36.606L82.005,30.824L82.897,25.209L83.683,18.711L84.455,16.822L85.274,24.758L86.368,34.492L87.906,36.35L89.429,36.164L90.395,42.008L90.992,44.864L91.587,33.598L92.131,18.74L92.527,15.68L93.25,23.848L94.895,36.769L97.549,46.816L100.99,47.171L104.255,38.309L106.311,24.369L107.327,15.407L107.913,20.761L108.617,31.831L109.851,35.451L111.328,32.274L112.55,27.945L113.407,26.049L113.982,28.31L114.657,29.708L115.822,24.245L117.145,16.949L118.101,15.828L118.793,19.32L119.595,22.543L120.99,24.523L123.349,25.744L125.968,25.609L127.912,23.314L129.771,19.789L132.53,16.927L135.416,18.239L137.146,26.844L138.246,38.083L139.881,44.785L142.086,46.275L144.45,44.479L146.97,39.254L149.753,30.257L152.366,22.673L154.245,22.901L155.675,27.285L157.287,28.457L159.284,26.345L161.634,24.003L164.023,22.076L166.03,20.012L167.498,16.917L168.41,12.339L168.912,10.749L169.279,17.996L170.218,31.34L172.468,44.187L175.193,53.383L176.98,57.705L178.259,57.556L180.227,53.897L182.566,45.358L184.299,30.566L185.581,18.816L187.067,22.572L188.535,32.392L189.47,29.547L190.986,17.019L194.763,8.45L199.574,7.461L202.852,11.881L204.438,17.025L205.458,17.56L206.447,15.057L207.581,14.384L208.797,14.708L209.909,12.52L210.851,10.243L211.635,12.95L212.42,17.707L213.416,17.789L214.474,15.907L215.27,19.32L215.881,24.014L216.613,20.315L217.651,10.786L219.079,4.91L220.695,5.871L222.159,12.657L223.558,21.495L225.203,27.458L226.891,31.587L228.162,38.041L229.378,43.114L231.327,39.122L233.566,31.377L234.974,32.255L236.01,36.909L238.043,30.588L240.809,17.321L243.025,12.525L244.471,15.675L245.65,16.318L246.966,16.889L248.725,27.412L250.945,40.006L253.431,36.061L255.831,21.151L257.741,16.472L259.574,21.893L262.227,22.902L265.239,19.955L267.244,23.816L268.082,34.75L268.471,45.257L268.769,49.401L269.051,43.213L269.399,32.348L269.933,28.916L271.237,33.59L274.167,38.574L278.366,41.901L282.561,45.962L285.88,48.372L287.879,43.522L289.519,35.507L292.73,35.314L297.267,39.777L301.207,35.229L304.174,25.124L307.104,26.129L311.035,38.239L316.927,47.923L323.478,51.346L327.647,52.984L329.03,54.691L329.492,55.772L330.681,53.629L333.874,44.54L338.186,32.76L340.976,28.944L341.737,32.946L341.86,35.233L342.037,32.701L342.275,28.241L342.559,23.838L342.885,20.521L343.44,20.365L344.562,26.084L346.173,33.064L347.81,30.41L349.197,18.663L350.255,9.075L350.986,6.532L351.48,9.402L352.113,15.184L353.511,20.929L355.648,26.67L357.864,35.091L359.66,42.078L360.753,37.282L361.415,24.954L362.434,23.573L363.821,34.078L364.803,39.42L365.449,35.652L366.699,32.858L368.567,32.374L370.1,26.091L371.279,15.954L373.107,14.583L375.956,22.491L379.477,26.947L383.656,23.88L388.848,19.282L394.501,16.957L399.082,17.634L402.063,19.036L404.092,15.938L405.518,9.778L406.297,9.46L406.672,16.351L407.228,22.818L408.163,24.964L409.216,23.838L410.609,21.52L413.132,20.874L416.465,21.321L418.971,18.318L420.323,14.008L421.856,18.617L423.888,32.765L425.396,44.866L426.051,49.346L426.484,49.01L427.067,46.356L427.773,42.832L428.564,39.867L429.419,38.879L430.24,38.581L430.831,34.29L431.283,25.564L432.05,17.735L433.18,13.198L434.149,9.965L434.833,7.529L435.684,7.723L436.788,9.977L437.685,10.312L438.426,8.497L439.81,9.748L442.103,15.981L444.757,23.924L447.418,29.549L450.1,28.433L452.975,22.63L456.394,23.343L460.21,32.236L463.531,36.225L465.829,32.212L467.206,33.363L467.95,42.768L468.557,46.657L469.485,40.712L471.113,36.928L473.471,40.826L476.069,45.934L478.372,48.061L479.854,48.151L480.4,47.061L480.54,44.804L480.884,41.446L482.072,37.262L484.407,32.69L487.638,28.393L491.174,24.215L493.952,18.647L495.737,12.391L497.724,10.001L500.43,12.965L502.996,17.008L504.785,19.18L505.768,19.772L506.134,20.595L506.339,25.504L506.646,34.951L506.933,43.061L507.168,45.287L507.55,40.637L508.112,31.989L508.553,28.489L508.782,33.594L509.164,39.159L509.887,39.692L510.726,36.937L511.865,32.248L514.335,24.792L518.157,16.926L521.247,17.491L522.575,28.08L523.605,34.899L525.844,31.846L530.319,31.315L536.684,39.163L541.997,43.995L544.55,39.377L545.747,32.992L546.76,30.51L547.517,30.017L548.211,30.203L549.89,32.917L552.85,38.38L555.573,42.559L557.04,41.746L557.786,34.09L558.36,20.909L558.912,9.863L559.811,7.051L562.014,13.318L566.313,26.148L572.959,37.119L581.28,39.971L588.689,35.138L593.616,25.308L597.422,16.231L601.083,13.257L603.743,19.801L604.845,34.737L605.153,46.906L605.404,47.649L605.808,37.738L606.389,22.992L606.907,18.1L607.199,30.055L607.385,43.712L607.607,47.047L607.946,44.13L608.412,40.644L608.855,40.102L609.181,42.904L609.501,42.341L609.886,35.752L610.225,33.924L610.457,42.628L610.742,48.676L611.224,42.751L611.908,34.168L612.721,30.575L613.428,26.69L614.002,19.14L615.062,15.8L616.919,22.391L618.718,33.219L619.794,41.544L620.591,43.278L621.668,37.216L623.355,29.098L625.687,24.473L627.961,24.68L629.773,28.536L632.005,29.646L635.204,24.031L638.189,17.895L639.969,17.699L641.102,24.858L642.248,37.966L643.457,49.843L644.617,54.295L645.483,51.757L645.987,45.296L646.726,42.251L648.162,46.587L649.901,48.59L651.47,41.157L652.715,34.905L653.791,38.861L655.685,44.585L658.944,42.817L662.044,33.859L663.583,21.598L664.093,15.291L664.483,20.706L665.525,27.378L667.681,26.463L670.425,27.405L673.223,38.289L676.312,47.719L679.818,44.711L682.83,35.803L684.573,29.6L685.669,27.514L686.855,28.659L688.074,29.741L689.24,28.253L690.853,26.837L693.273,28.248L695.76,30.905L697.555,32.737L698.883,33.883">
			</path>
			<g class="graph-legend" transform="translate(715, 15)">
				<g transform="translate(0, 0)">
					<circle fill="black" cy="-3.3333333333333335" r="5"></circle><text font-size="10"
						transform="translate(10, 0)">SpO2</text>
				</g>
				<g transform="translate(0, 15)">
					<circle fill="purple" cy="-3.3333333333333335" r="5"></circle><text font-size="10"
						transform="translate(10, 0)">Resp</text>
				</g>
			</g>
		</g>
		<g class="timeline" transform="translate(0, 385)">
			<rect class="annotation" fill="blue" opacity="0.2" x="140.19444444444446" width="5.638888888888886"
				height="35"></rect>
			<rect class="annotation" fill="green" opacity="0.2" x="11.666666666666666" width="11.666666666666666"
				height="35"></rect>
			<rect class="annotation" fill="purple" opacity="0.2" x="160.41666666666666" width="26.25" height="35">
			</rect>
			<rect class="annotation" fill="red" opacity="0.2" x="218.75" width="2.916666666666657" height="35"></rect>
			<g class="x-axis" transform="translate(0, 35)">
				<g class="d3-axis-bottom" fill="none" font-size="10" font-family="sans-serif" text-anchor="middle">
					<g class="tick" opacity="1" transform="translate(0.5,0)">
						<line stroke="currentColor" y2="6"></line><text fill="currentColor" y="9" dy="0.71em">06
							PM</text>
					</g>
					<g class="tick" opacity="1" transform="translate(64.13636363636364,0)">
						<line stroke="currentColor" y2="6"></line><text fill="currentColor" y="9" dy="0.71em">Tue
							24</text>
					</g>
					<g class="tick" opacity="1" transform="translate(127.77272727272728,0)">
						<line stroke="currentColor" y2="6"></line><text fill="currentColor" y="9" dy="0.71em">06
							AM</text>
					</g>
					<g class="tick" opacity="1" transform="translate(191.4090909090909,0)">
						<line stroke="currentColor" y2="6"></line><text fill="currentColor" y="9" dy="0.71em">12
							PM</text>
					</g>
					<g class="tick" opacity="1" transform="translate(255.04545454545456,0)">
						<line stroke="currentColor" y2="6"></line><text fill="currentColor" y="9" dy="0.71em">06
							PM</text>
					</g>
					<g class="tick" opacity="1" transform="translate(318.6818181818182,0)">
						<line stroke="currentColor" y2="6"></line><text fill="currentColor" y="9" dy="0.71em">Wed
							25</text>
					</g>
					<g class="tick" opacity="1" transform="translate(382.3181818181818,0)">
						<line stroke="currentColor" y2="6"></line><text fill="currentColor" y="9" dy="0.71em">06
							AM</text>
					</g>
					<g class="tick" opacity="1" transform="translate(445.95454545454544,0)">
						<line stroke="currentColor" y2="6"></line><text fill="currentColor" y="9" dy="0.71em">12
							PM</text>
					</g>
					<g class="tick" opacity="1" transform="translate(509.5909090909091,0)">
						<line stroke="currentColor" y2="6"></line><text fill="currentColor" y="9" dy="0.71em">06
							PM</text>
					</g>
					<g class="tick" opacity="1" transform="translate(573.2272727272727,0)">
						<line stroke="currentColor" y2="6"></line><text fill="currentColor" y="9" dy="0.71em">Thu
							26</text>
					</g>
					<g class="tick" opacity="1" transform="translate(636.8636363636364,0)">
						<line stroke="currentColor" y2="6"></line><text fill="currentColor" y="9" dy="0.71em">06
							AM</text>
					</g>
					<g class="tick" opacity="1" transform="translate(700.5,0)">
						<line stroke="currentColor" y2="6"></line><text fill="currentColor" y="9" dy="0.71em">12
							PM</text>
					</g>
				</g>
			</g>
			<rect x="0" y="0" width="700" height="35" stroke="#CCC" stroke-width="2" fill="none" rx="2" ry="2"></rect>
			<rect fill="rgba(32, 125, 234, 0.13)" stroke="#207DEA" stroke-width="2" height="35" y="0"
				x="127.27272727272728" width="127.27272727272728" rx="2" ry="2"></rect>
		</g>
		<g class="annotations">
			<g class="annotation">
				<rect x="59.30555555555556" y="0" width="28.194444444444443" height="355" fill="blue" opacity="0.2">
				</rect>
			</g>
			<g class="annotation">
				<rect x="160.41666666666666" y="0" width="131.25000000000003" height="355" fill="purple" opacity="0.2">
				</rect>
			</g>
			<g class="annotation">
				<rect x="452.08333333333337" y="0" width="14.583333333333258" height="355" fill="red" opacity="0.2">
				</rect>
			</g>
		</g>
	</g>
	<g transform="translate(130, 130)"><text class="title" rotation="0" text-anchor="middle" dominant-baseline="central"
			font-size="20" transform="translate(350,-78) rotate(0)">Patient #1504</text><text class="title"
			rotation="-90" text-anchor="middle" dominant-baseline="central" font-size="20"
			transform="translate(-90,186.5) rotate(-90)">Y Axis Label</text></g>
</svg>