<svg xmlns="http://www.w3.org/2000/svg" viewBox="0 0 960 340">
	<g class="graphs" transform="translate(130, 130)">
		<g class="graph" id="graph-2" transform="translate(0, 0)">
			<g class="y-axis"><text class="title" rotation="0" text-anchor="middle" dominant-baseline="central"
					font-size="20" transform="translate(0,0) rotate(0)"></text>
				<g class="d3-axis-left" fill="none" font-size="10" font-family="sans-serif" text-anchor="end">
					<path class="domain" stroke="currentColor" d="M-6,80.5H0.5V0.5H-6"></path>
					<g class="tick" opacity="1" transform="translate(0,80.5)">
						<line stroke="currentColor" x2="-6"></line><text fill="currentColor" x="-9"
							dy="0.32em">0.50</text>
					</g>
					<g class="tick" opacity="1" transform="translate(0,64.49999999999999)">
						<line stroke="currentColor" x2="-6"></line><text fill="currentColor" x="-9"
							dy="0.32em">0.52</text>
					</g>
					<g class="tick" opacity="1" transform="translate(0,48.499999999999964)">
						<line stroke="currentColor" x2="-6"></line><text fill="currentColor" x="-9"
							dy="0.32em">0.54</text>
					</g>
					<g class="tick" opacity="1" transform="translate(0,32.49999999999995)">
						<line stroke="currentColor" x2="-6"></line><text fill="currentColor" x="-9"
							dy="0.32em">0.56</text>
					</g>
					<g class="tick" opacity="1" transform="translate(0,16.500000000000014)">
						<line stroke="currentColor" x2="-6"></line><text fill="currentColor" x="-9"
							dy="0.32em">0.58</text>
					</g>
					<g class="tick" opacity="1" transform="translate(0,0.5)">
						<line stroke="currentColor" x2="-6"></line><text fill="currentColor" x="-9"
							dy="0.32em">0.60</text>
					</g>
				</g>
			</g>
			<path fill="none" stroke="blue" stroke-width="0.5"
				d="M0.627,15.34L3.95,42.962L7.535,63.009L11.471,70.272L15.164,69.159L17.959,64.66L19.69,54.106L20.446,35.719L20.838,19.705L21.468,16.295L22.293,22.503L23.114,32.045L23.775,39.538L24.248,41.116L25.008,38.475L26.448,34.386L27.986,29.615L29.023,24.459L30.117,19.61L32.043,15.582L35.08,11.538L39.092,7.505L42.668,9.293L44.463,21.293L45.193,33.242L46.06,34.429L47.664,32.711L50.257,38.207L53.268,44.969L55.946,44.95L57.888,43.842L58.948,48.784L59.749,52.9L60.988,48.361L62.507,44.801L64.006,53.311L65.835,63.776L68.36,62.568L70.932,53.504L72.743,45.304L73.932,42.375L74.885,46.561L75.64,53.576L76.145,57.703L76.534,56.704L76.985,50.258L77.581,42.095L78.339,36.467L79.12,32.632L79.758,29.051L80.27,29.733L80.739,38.506L81.24,46.554L81.875,43.856L82.897,40.489L84.488,49.598L86.04,58.179L86.84,48.09L87.279,29.522L88.061,21.01L89.21,26.212L90.473,41.539L91.516,53.761L92.04,49.554L92.185,39.104L92.242,39.064L92.374,47.623L92.657,55.983L92.967,58.19L93.149,50.745L93.409,38.826L94.038,29.973L94.905,23.375L95.756,16.194L96.723,15.824L98.024,31.461L99.321,54.301L100.132,69.6L100.649,75.65L101.306,76.213L102.146,73.327L103.065,67.967L104.15,58.951L105.535,45.236L107.084,34.102L108.615,34.602L110.544,40.309L113.487,39.376L117.429,33.523L121.984,30.044L126.172,29.952L128.918,31.139L130.709,30.568L132.638,25.46L134.676,18.764L136.385,15.738L138.539,17.597L142.319,23.648L147.227,34.026L151.983,48.445L155.805,59.308L158.261,57.308L159.713,50.702L160.867,54.168L161.87,58.708L162.652,46.027L163.838,26.173L166.261,21.766L169.272,32.212L171.575,44.693L173.285,49.517L175.193,40.396L177.203,26.552L178.765,23.737L179.73,27.987L180.233,25.635L180.897,16.69L182.495,8.867L184.534,8.554L185.891,20.031L186.464,34.473L186.753,37.252L187.284,32.83L188.515,35.465L190.084,43.033L191.205,44.672L191.816,42.211L192.298,44.128L193.061,46.389L194.467,38.732L196.144,28.135L197.336,30.449L198.137,39.198L199.126,35.902L200.222,27.803L200.96,36.306L201.434,53.62L202.073,55.016L202.911,42.382L203.736,34.101L204.471,33.179L205.132,32.568L205.728,30.391L206.309,28.239L207.535,25.645L210.352,21.071L214.046,17.922L216.862,22.23L218.644,29.067L220.337,26.856L222.287,19.047L224.374,18.83L226.227,24.312L227.337,23.571L227.777,19.154L228.028,23.587L228.255,37.855L228.412,54.317L228.795,67.159L229.919,72.221L231.564,67.093L232.985,51.439L234.035,36.505L235.101,40.651L237.447,54.5L242.821,48.799L249.829,26.021L254.774,12.946L257.163,15.09L259.042,20.765L260.951,25.794L262.185,32.39L262.736,40.482L263.188,47.781L263.851,49.003L264.802,37.126L266.318,17.507L268.8,5.499L271.662,6.571L273.544,17.389L274.458,34.005L275.586,52.055L277.3,64.721L279.224,63.62L281.039,51.48L282.539,40.693L284.321,37.36L287.636,41.277L292.329,46.307L296.959,41.812L300.754,31.974L303.61,34.069L305.609,47.679L307.002,55.731L308.431,51.631L310.851,39.509L314.01,25.586L316.512,17.397L317.867,15.92L318.552,15.933L319.782,18.519L323.36,30.715L328.559,46.311L332.177,46.325L333.415,31.281L333.994,21.567L334.71,22.836L335.301,24.882L335.765,24.861L336.421,28.204L337.387,35.305L338.555,40.838L339.744,40.431L340.743,31.284L342.406,17.187L346.651,8.791L352.909,10.3L357.881,18.365L360.572,27.859L362.683,32.334L364.836,32.12L366.289,35.116L366.868,43.69L367.134,53.449L367.575,61.599L368.536,67.629L369.975,70.521L371.41,68.524L372.544,60.496L373.331,46.246L373.973,31.602L374.946,29.247L376.565,39.566L378.922,47.577L381.918,45.746L385.235,36.978L388.456,25.146L391.076,14.531L393.208,9.937L395.741,16.562L398.712,30.401L401.015,35.816L402.266,28.96L403.132,22.31L404.434,23.49L407.083,32.113L411.572,43.45L417.79,47.891L424.561,45.004L429.354,47.099L431.287,55.78L431.881,56.887L432.242,48.862L432.64,49.085L433.287,60.089L434.406,61.668L436.709,49.212L441.56,42.741L448.295,49.123L453.255,53.466L454.928,50.395L455.299,50.957L455.817,57.863L456.703,59.508L458.026,50.991L459.77,39.336L461.638,30.836L462.923,29.074L463.597,34.58L464.73,43.494L466.603,52.201L468.108,58.109L468.8,60.933L469.473,63.9L470.5,68.088L471.388,70.606L471.904,70.012L472.368,67.813L472.968,63.062L473.579,50.364L474.115,30.893L474.61,17.563L475.09,17.332L475.548,25.028L475.96,34.161L476.265,38.097L476.537,36.084L477.089,37.663L478.277,45.254L480.488,46.804L483.536,38.223L486.202,32.446L487.743,35.978L488.502,40.317L489.444,41.744L492.468,48.333L497.805,59.966L502.367,58.802L504.312,39.836L504.884,26.224L505.553,30.809L507.551,40.358L511.37,44.481L516.094,44.222L520.765,40.709L524.66,32.617L527.343,22.535L528.9,21.484L529.574,32.177L529.799,38.331L530.061,33.335L530.909,35.402L532.633,53.658L534.961,71.639L537.498,76.243L539.731,68.458L541.463,54.249L543.216,46.388L545.243,50.022L547.006,51.649L548.326,43.173L550.048,34.033L552.665,32.266L555.556,37.408L558.292,45.721L561.223,48.656L564.388,41.209L566.856,28.176L568.093,16.657L568.837,15.912L569.972,29.449L572.296,46.314L575.901,57.04L579.213,60.884L581.169,58.212L582.575,48.945L584.383,35.08L587.197,23.942L590.955,20.297L594.043,20.376L595.422,21.223L596.141,25.384L597.244,34.482L598.903,45.474L600.981,54.368L602.892,56.648L604.18,50.157L604.937,39.282L605.364,30.108L605.709,30.363L606.125,42.399L606.472,52.967L606.636,52.421L606.725,48.649L606.906,48.268L607.404,45.636L608.344,36.369L609.539,25.921L610.993,21.244L613.449,28.503L617.139,48.345L620.379,65.455L621.983,68.309L623.32,65.661L625.563,65.145L627.826,59.356L629.214,43.063L630.028,26.652L630.967,19.95L633.241,21.536L637.336,26.751L641.088,27.649L642.703,21.093L643.301,21.673L644.146,40.074L645.048,62.323L645.695,72.484L646.369,64.961L647.334,41.377L648.379,20.503L649.335,18.737L650.519,31.817L652.415,50.299L655.737,62.166L660.619,59.525L664.947,51.125L667.109,46.676L669.085,46.086L672.794,47.509L676.993,50.746L680.106,54.9L681.998,55.085L682.915,47.977L683.284,39.628L683.601,36.763L684.491,40.239L686.355,47.675L688.615,49.552L690.628,37.94L692.433,17.973">
			</path>
			<g class="graph-legend" transform="translate(715, 15)">
				<g transform="translate(0, 0)">
					<circle fill="blue" cy="-3.3333333333333335" r="5"></circle><text font-size="10"
						transform="translate(10, 0)">ABP_na</text>
				</g>
			</g>
		</g>
		<g class="timeline" transform="translate(0, 110)">
			<rect class="annotation" fill="blue" opacity="0.2" x="140.19444444444446" width="0.19444444444442865"
				height="35"></rect>
			<rect class="annotation" fill="green" opacity="0.2" x="140.97222222222223" width="419.02777777777777"
				height="35"></rect>
			<g class="x-axis" transform="translate(0, 35)">
				<g class="d3-axis-bottom" fill="none" font-size="10" font-family="sans-serif" text-anchor="middle">
					<g class="tick" opacity="1" transform="translate(0.5,0)">
						<line stroke="currentColor" y2="6"></line><text fill="currentColor" y="9" dy="0.71em">06
							PM</text>
					</g>
					<g class="tick" opacity="1" transform="translate(64.13636363636364,0)">
						<line stroke="currentColor" y2="6"></line><text fill="currentColor" y="9" dy="0.71em">Tue
							24</text>
					</g>
					<g class="tick" opacity="1" transform="translate(127.77272727272728,0)">
						<line stroke="currentColor" y2="6"></line><text fill="currentColor" y="9" dy="0.71em">06
							AM</text>
					</g>
					<g class="tick" opacity="1" transform="translate(191.4090909090909,0)">
						<line stroke="currentColor" y2="6"></line><text fill="currentColor" y="9" dy="0.71em">12
							PM</text>
					</g>
					<g class="tick" opacity="1" transform="translate(255.04545454545456,0)">
						<line stroke="currentColor" y2="6"></line><text fill="currentColor" y="9" dy="0.71em">06
							PM</text>
					</g>
					<g class="tick" opacity="1" transform="translate(318.6818181818182,0)">
						<line stroke="currentColor" y2="6"></line><text fill="currentColor" y="9" dy="0.71em">Wed
							25</text>
					</g>
					<g class="tick" opacity="1" transform="translate(382.3181818181818,0)">
						<line stroke="currentColor" y2="6"></line><text fill="currentColor" y="9" dy="0.71em">06
							AM</text>
					</g>
					<g class="tick" opacity="1" transform="translate(445.95454545454544,0)">
						<line stroke="currentColor" y2="6"></line><text fill="currentColor" y="9" dy="0.71em">12
							PM</text>
					</g>
					<g class="tick" opacity="1" transform="translate(509.5909090909091,0)">
						<line stroke="currentColor" y2="6"></line><text fill="currentColor" y="9" dy="0.71em">06
							PM</text>
					</g>
					<g class="tick" opacity="1" transform="translate(573.2272727272727,0)">
						<line stroke="currentColor" y2="6"></line><text fill="currentColor" y="9" dy="0.71em">Thu
							26</text>
					</g>
					<g class="tick" opacity="1" transform="translate(636.8636363636364,0)">
						<line stroke="currentColor" y2="6"></line><text fill="currentColor" y="9" dy="0.71em">06
							AM</text>
					</g>
					<g class="tick" opacity="1" transform="translate(700.5,0)">
						<line stroke="currentColor" y2="6"></line><text fill="currentColor" y="9" dy="0.71em">12
							PM</text>
					</g>
				</g>
			</g>
			<rect x="0" y="0" width="700" height="35" stroke="#CCC" stroke-width="2" fill="none" rx="2" ry="2"></rect>
			<rect fill="rgba(32, 125, 234, 0.13)" stroke="#207DEA" stroke-width="2" height="35" y="0"
				x="137.87878787878788" width="10.606060606060623" rx="2" ry="2"></rect>
		</g>
		<g class="annotations">
			<g class="annotation">
				<rect x="11.666666666666666" y="0" width="11.666666666666666" height="80" fill="blue" opacity="0.2">
				</rect>
			</g>
			<g class="annotation">
				<rect x="58.33333333333333" y="0" width="641.6666666666666" height="80" fill="green" opacity="0.2">
				</rect>
			</g>
		</g>
	</g>
	<g transform="translate(130, 130)"><text class="title" rotation="0" text-anchor="middle" dominant-baseline="central"
			font-size="20" transform="translate(350,-78) rotate(0)">X Axis Label</text><text class="title"
			rotation="-90" text-anchor="middle" dominant-baseline="central" font-size="20"
			transform="translate(-90,49) rotate(-90)">Y Axis Label</text></g>
</svg>